<svg width="19" height="19" viewBox="0 0 19 19" fill="none" xmlns="http://www.w3.org/2000/svg">
<g id="Frame 2346">
<g id="Group 116">
<g id="Group 124">
<path id="Vector 158" d="M16.369 16.0322H3.63102C1.9815 16.0322 0.959305 14.2344 1.80145 12.8143L8.17043 2.07492C8.99492 0.684661 11.0051 0.684662 11.8296 2.07492L18.1985 12.8143C19.0407 14.2344 18.0185 16.0322 16.369 16.0322Z" fill="black"/>
<path id="!" d="M11.0139 5.10449L10.8381 10.999H9.16232L8.98654 5.10449H11.0139ZM9.99435 13.7061C9.40841 13.7061 8.92794 13.2373 8.93966 12.6396C8.92794 12.0654 9.40841 11.5967 9.99435 11.5967C10.5569 11.5967 11.049 12.0654 11.0608 12.6396C11.049 13.2373 10.5569 13.7061 9.99435 13.7061Z" fill="#F6D75E"/>
</g>
</g>
</g>
</svg>
