<svg width="80" height="80" viewBox="0 0 80 80" fill="none" xmlns="http://www.w3.org/2000/svg">
<g id="Group 119">
<rect id="Rectangle 1992" width="80" height="80" rx="30" fill="#0E1B39"/>
<path id="Vector" d="M49.874 31.6952H46.5583L44.928 29.1988C44.8406 29.0652 44.7224 28.9555 44.5836 28.8797C44.4449 28.8039 44.2899 28.7641 44.1326 28.764H36.4773C36.3199 28.7641 36.165 28.8039 36.0262 28.8797C35.8875 28.9555 35.7692 29.0652 35.6819 29.1988L34.0503 31.6952H30.7358C29.9745 31.6952 29.2443 32.004 28.7059 32.5537C28.1676 33.1034 27.8651 33.8489 27.8651 34.6263V48.3048C27.8651 49.0822 28.1676 49.8278 28.7059 50.3774C29.2443 50.9271 29.9745 51.2359 30.7358 51.2359H49.874C50.6354 51.2359 51.3655 50.9271 51.9039 50.3774C52.4423 49.8278 52.7447 49.0822 52.7447 48.3048V34.6263C52.7447 33.8489 52.4423 33.1034 51.9039 32.5537C51.3655 32.004 50.6354 31.6952 49.874 31.6952ZM44.611 40.977C44.611 41.8466 44.3585 42.6967 43.8853 43.4197C43.4121 44.1427 42.7396 44.7063 41.9528 45.039C41.166 45.3718 40.3001 45.4589 39.4648 45.2892C38.6295 45.1196 37.8623 44.7008 37.2601 44.086C36.6578 43.4711 36.2477 42.6877 36.0816 41.8348C35.9154 40.9819 36.0007 40.0979 36.3266 39.2945C36.6525 38.4911 37.2045 37.8044 37.9126 37.3213C38.6207 36.8382 39.4533 36.5804 40.3049 36.5804C41.447 36.5804 42.5422 37.0436 43.3498 37.8681C44.1573 38.6926 44.611 39.811 44.611 40.977Z" fill="white"/>
</g>
</svg>
