<svg width="331" height="71" viewBox="0 0 331 71" fill="none" xmlns="http://www.w3.org/2000/svg">
<path d="M274.656 2.5H330.706V23.59H299.451V28.055H326.241V43.54H299.451V48.005H330.706V69.095H274.656V2.5Z" fill="white"/>
<path d="M243.113 2.5H267.908V69.095H243.113V2.5Z" fill="white"/>
<path d="M169.358 2.5H194.153V17.51L206.313 2.5H236.048L216.478 26.535C216.668 41.26 225.123 50.665 240.323 50.665L229.493 69.095C214.008 69.095 202.418 61.97 197.193 50.19L194.153 54.085V69H169.358V2.5Z" fill="white"/>
<path d="M99.0752 35.75C99.0752 13.52 112.945 0.789978 137.36 0.789978C148.76 0.789978 159.21 4.20998 165.955 10.1L151.8 28.625C148.665 24.445 143.915 21.785 138.215 21.785C130.52 21.785 124.535 27.295 124.535 35.75C124.535 44.68 129.475 49.715 138.215 49.715C143.535 49.715 148.57 47.34 151.8 42.97L165.955 61.495C159.21 67.385 148.76 70.805 137.36 70.805C112.945 70.805 99.0752 58.075 99.0752 35.75Z" fill="white"/>
<path d="M69.8123 2.5H94.6073V69.095H69.8123V2.5Z" fill="white"/>
<path d="M31.96 2.5C54.57 2.5 65.875 11.81 65.875 27.39C65.875 42.875 54.57 52.185 31.96 52.185H25.12V69H0.324951V2.5H31.96ZM31.96 31.095V31.19C38.42 31.19 40.415 30.05 40.415 27.39C40.415 24.73 38.42 23.59 31.96 23.59H25.12V31.095H31.96Z" fill="white"/>
</svg>
